<svg width="36" height="37" viewBox="0 0 36 37" fill="none" xmlns="http://www.w3.org/2000/svg">
    <circle cx="18" cy="18.57" r="18" fill="#000072"/>
    <mask id="path-2-inside-1_343_94" fill="white">
        <path fill-rule="evenodd" clip-rule="evenodd" d="M29.4266 19.3415C29.8646 18.9459 29.8666 18.259 29.4309 17.861L18.7352 8.09091C18.0944 7.50557 17.0632 7.95859 17.0607 8.82654L17.0491 12.8819H11.2437V24.1229H17.0168L17.0048 28.308C17.0023 29.1759 18.0309 29.6346 18.675 29.0528L29.4266 19.3415ZM10.2437 24.1229H9.24365V12.8819H10.2437V24.1229ZM8.24365 24.1229V12.8819H7.24365C6.69137 12.8819 6.24365 13.3296 6.24365 13.8819V23.1229C6.24365 23.6752 6.69137 24.1229 7.24365 24.1229H8.24365Z"/>
    </mask>
    <path d="M29.4309 17.861L30.7798 16.3844L30.7798 16.3844L29.4309 17.861ZM29.4266 19.3415L30.7672 20.8256V20.8256L29.4266 19.3415ZM18.7352 8.09091L20.0841 6.61425V6.61425L18.7352 8.09091ZM17.0607 8.82654L15.0607 8.8208V8.8208L17.0607 8.82654ZM17.0491 12.8819V14.8819H19.0433L19.0491 12.8877L17.0491 12.8819ZM11.2437 12.8819V10.8819H9.24365V12.8819H11.2437ZM11.2437 24.1229H9.24365V26.1229H11.2437V24.1229ZM17.0168 24.1229L19.0168 24.1287L19.0226 22.1229H17.0168V24.1229ZM17.0048 28.308L15.0048 28.3022V28.3022L17.0048 28.308ZM18.675 29.0528L20.0156 30.537L20.0156 30.537L18.675 29.0528ZM10.2437 24.1229V26.1229H12.2437V24.1229H10.2437ZM9.24365 24.1229H7.24365V26.1229H9.24365V24.1229ZM9.24365 12.8819V10.8819H7.24365V12.8819H9.24365ZM10.2437 12.8819H12.2437V10.8819H10.2437V12.8819ZM8.24365 12.8819H10.2437V10.8819H8.24365V12.8819ZM8.24365 24.1229V26.1229H10.2437V24.1229H8.24365ZM28.082 19.3377C27.6461 18.9395 27.6483 18.2526 28.0861 17.8573L30.7672 20.8256C32.0809 19.6391 32.0871 17.5786 30.7798 16.3844L28.082 19.3377ZM17.3863 9.56758L28.082 19.3377L30.7798 16.3844L20.0841 6.61425L17.3863 9.56758ZM19.0607 8.83228C19.0582 9.69969 18.0275 10.1533 17.3863 9.56758L20.0841 6.61425C18.1613 4.85789 15.0682 6.2175 15.0607 8.8208L19.0607 8.83228ZM19.0491 12.8877L19.0607 8.83228L15.0607 8.8208L15.0491 12.8762L19.0491 12.8877ZM11.2437 14.8819H17.0491V10.8819H11.2437V14.8819ZM9.24365 12.8819V24.1229H13.2437V12.8819H9.24365ZM17.0168 22.1229H11.2437V26.1229H17.0168V22.1229ZM19.0048 28.3137L19.0168 24.1287L15.0168 24.1172L15.0048 28.3022L19.0048 28.3137ZM17.3345 27.5686C17.9782 26.9871 19.0073 27.4452 19.0048 28.3137L15.0048 28.3022C14.9973 30.9066 18.0836 32.282 20.0156 30.537L17.3345 27.5686ZM28.0861 17.8573L17.3345 27.5686L20.0156 30.537L30.7672 20.8256L28.0861 17.8573ZM10.2437 22.1229H9.24365V26.1229H10.2437V22.1229ZM11.2437 24.1229V12.8819H7.24365V24.1229H11.2437ZM9.24365 14.8819H10.2437V10.8819H9.24365V14.8819ZM12.2437 24.1229V12.8819H8.24365V24.1229H12.2437ZM6.24365 12.8819V24.1229H10.2437V12.8819H6.24365ZM7.24365 14.8819H8.24365V10.8819H7.24365V14.8819ZM8.24365 13.8819C8.24365 14.4342 7.79594 14.8819 7.24365 14.8819V10.8819C5.5868 10.8819 4.24365 12.2251 4.24365 13.8819H8.24365ZM8.24365 23.1229V13.8819H4.24365V23.1229H8.24365ZM7.24365 22.1229C7.79594 22.1229 8.24365 22.5706 8.24365 23.1229H4.24365C4.24365 24.7798 5.5868 26.1229 7.24365 26.1229V22.1229ZM8.24365 22.1229H7.24365V26.1229H8.24365V22.1229Z" fill="white" mask="url(#path-2-inside-1_343_94)"/>
</svg>
