<svg width="48" height="49" viewBox="0 0 48 49" fill="none" xmlns="http://www.w3.org/2000/svg">
    <path fill-rule="evenodd" clip-rule="evenodd" d="M14.1818 4.38959C14.1818 2.28196 15.8924 0.571411 18 0.571411H30C32.1076 0.571411 33.8182 2.28196 33.8182 4.38959V9.29868H44.1818C46.2895 9.29868 48 11.0092 48 13.1169V44.7532C48 45.7659 47.5977 46.737 46.8817 47.4531C46.1656 48.1691 45.1945 48.5714 44.1818 48.5714H3.81818C2.80554 48.5714 1.83437 48.1691 1.11832 47.4531C0.402272 46.737 0 45.7659 0 44.7532V13.1169C0 11.0092 1.71055 9.29868 3.81818 9.29868H14.1818V4.38959ZM3.27273 26.7314V44.7532C3.27273 45.0543 3.51709 45.2987 3.81818 45.2987H44.1818C44.3265 45.2987 44.4652 45.2412 44.5675 45.1389C44.6698 45.0366 44.7273 44.8979 44.7273 44.7532V26.7314C43.0533 28.1567 40.9258 28.9381 38.7273 28.935H9.27273C7.07419 28.9381 4.94669 28.1567 3.27273 26.7314ZM44.7273 19.6623C44.7273 21.2536 44.0951 22.7797 42.9699 23.905C41.8447 25.0302 40.3186 25.6623 38.7273 25.6623H9.27273C7.68143 25.6623 6.1553 25.0302 5.03009 23.905C3.90487 22.7797 3.27273 21.2536 3.27273 19.6623V13.1169C3.27273 12.9722 3.33019 12.8335 3.43249 12.7312C3.53478 12.6289 3.67352 12.5714 3.81818 12.5714H44.1818C44.3265 12.5714 44.4652 12.6289 44.5675 12.7312C44.6698 12.8335 44.7273 12.9722 44.7273 13.1169V19.6623ZM30.5455 4.38959V9.29868H17.4545V4.38959C17.4545 4.24493 17.512 4.10619 17.6143 4.0039C17.7166 3.90161 17.8553 3.84414 18 3.84414H30C30.1447 3.84414 30.2834 3.90161 30.3857 4.0039C30.488 4.10619 30.5455 4.24493 30.5455 4.38959Z" fill="#000072"/>
</svg>
