<svg width="15" height="15" viewBox="0 0 15 15" fill="none" xmlns="http://www.w3.org/2000/svg">
    <path d="M2.72727 6.98438C2.37784 6.98438 2.05966 6.89915 1.77273 6.72869C1.4858 6.55824 1.2571 6.32955 1.08665 6.04261C0.916193 5.75284 0.830966 5.43324 0.830966 5.08381C0.830966 4.73437 0.916193 4.41619 1.08665 4.12926C1.2571 3.84233 1.4858 3.61364 1.77273 3.44318C2.05966 3.27273 2.37784 3.1875 2.72727 3.1875C3.0767 3.1875 3.39489 3.27273 3.68182 3.44318C3.96875 3.61364 4.19744 3.84233 4.3679 4.12926C4.53835 4.41619 4.62358 4.73437 4.62358 5.08381C4.62358 5.43324 4.53835 5.75284 4.3679 6.04261C4.19744 6.32955 3.96875 6.55824 3.68182 6.72869C3.39489 6.89915 3.0767 6.98438 2.72727 6.98438ZM2.72727 6.32386C2.95739 6.32386 3.16477 6.26847 3.34943 6.15767C3.53693 6.04687 3.68608 5.89773 3.79688 5.71023C3.91051 5.52273 3.96733 5.31392 3.96733 5.08381C3.96733 4.85653 3.91051 4.64915 3.79688 4.46165C3.68608 4.27415 3.53693 4.125 3.34943 4.0142C3.16477 3.90341 2.95739 3.84801 2.72727 3.84801C2.5 3.84801 2.29261 3.90341 2.10511 4.0142C1.91761 4.125 1.76705 4.27415 1.65341 4.46165C1.54261 4.64915 1.48722 4.85653 1.48722 5.08381C1.48722 5.31392 1.54261 5.52273 1.65341 5.71023C1.76705 5.89773 1.91761 6.04687 2.10511 6.15767C2.29261 6.26847 2.5 6.32386 2.72727 6.32386Z" fill="#303345"/>
    <path d="M11.5582 12.1364C10.973 12.1364 10.4631 11.9901 10.0284 11.6974C9.59659 11.4048 9.26136 11.0043 9.02273 10.4957C8.78409 9.98722 8.66477 9.40767 8.66477 8.7571C8.66477 8.10085 8.78551 7.51705 9.02699 7.00568C9.27131 6.49432 9.60938 6.09375 10.0412 5.80398C10.473 5.51136 10.9744 5.36506 11.5455 5.36506C11.983 5.36506 12.3793 5.45028 12.7344 5.62074C13.0895 5.78835 13.3821 6.02557 13.6122 6.33239C13.8452 6.63636 13.9915 6.99148 14.0511 7.39773H13.2841C13.2045 7.02841 13.0128 6.71307 12.7088 6.4517C12.4077 6.1875 12.0241 6.0554 11.5582 6.0554C11.1406 6.0554 10.7713 6.16903 10.4503 6.39631C10.1293 6.62074 9.87784 6.93466 9.69602 7.33807C9.51705 7.73864 9.42756 8.20312 9.42756 8.73153C9.42756 9.26278 9.51563 9.73295 9.69176 10.142C9.8679 10.5483 10.1151 10.8665 10.4332 11.0966C10.7543 11.3267 11.1293 11.4418 11.5582 11.4418C11.848 11.4418 12.1122 11.3878 12.3509 11.2798C12.5923 11.169 12.794 11.0128 12.956 10.8111C13.1207 10.6094 13.2315 10.3693 13.2884 10.0909H14.0554C13.9986 10.4858 13.858 10.8381 13.6335 11.1477C13.4119 11.4545 13.1236 11.696 12.7685 11.8722C12.4162 12.0483 12.0128 12.1364 11.5582 12.1364Z" fill="#303345"/>
</svg>
