<svg width="24" height="24" viewBox="0 0 24 24" fill="none" xmlns="http://www.w3.org/2000/svg">
    <rect width="24" height="24" rx="4" fill="#000072"/>
    <path d="M5.67962 4.32038L6.29289 3.70711C6.68342 3.31658 7.31658 3.31658 7.70711 3.70711L10.2929 6.29289C10.6834 6.68342 10.6834 7.31658 10.2929 7.70711L8.50048 9.49952C8.2016 9.7984 8.1275 10.255 8.31653 10.6331C9.40929 12.8186 11.1814 14.5907 13.3669 15.6835C13.745 15.8725 14.2016 15.7984 14.5005 15.4995L16.2929 13.7071C16.6834 13.3166 17.3166 13.3166 17.7071 13.7071L20.2929 16.2929C20.6834 16.6834 20.6834 17.3166 20.2929 17.7071L19.6796 18.3204C17.5683 20.4317 14.2257 20.6693 11.837 18.8777L10.6286 17.9714C8.88504 16.6638 7.33622 15.115 6.02857 13.3714L5.12226 12.163C3.33072 9.7743 3.56827 6.43173 5.67962 4.32038Z" fill="white"/>
</svg>
