<svg width="48" height="45" viewBox="0 0 48 45" fill="none" xmlns="http://www.w3.org/2000/svg">
    <path d="M21.1429 10.2857C20.1961 10.2857 19.4286 11.0532 19.4286 12C19.4286 12.9468 20.1961 13.7143 21.1429 13.7143H36C36.9468 13.7143 37.7143 12.9468 37.7143 12C37.7143 11.0532 36.9468 10.2857 36 10.2857H21.1429Z" fill="#000072"/>
    <path d="M10.2857 12C10.2857 11.0532 11.0532 10.2857 12 10.2857H13.1429C14.0896 10.2857 14.8571 11.0532 14.8571 12C14.8571 12.9468 14.0896 13.7143 13.1429 13.7143H12C11.0532 13.7143 10.2857 12.9468 10.2857 12Z" fill="#000072"/>
    <path d="M19.4286 32.5714C19.4286 31.6246 20.1961 30.8571 21.1429 30.8571H36C36.9468 30.8571 37.7143 31.6246 37.7143 32.5714C37.7143 33.5182 36.9468 34.2857 36 34.2857H21.1429C20.1961 34.2857 19.4286 33.5182 19.4286 32.5714Z" fill="#000072"/>
    <path d="M12 30.8571C11.0532 30.8571 10.2857 31.6246 10.2857 32.5714C10.2857 33.5182 11.0532 34.2857 12 34.2857H13.1429C14.0896 34.2857 14.8571 33.5182 14.8571 32.5714C14.8571 31.6246 14.0896 30.8571 13.1429 30.8571H12Z" fill="#000072"/>
    <path fill-rule="evenodd" clip-rule="evenodd" d="M4 0C1.79086 0 0 1.79086 0 4V20C0 20.8498 0.265037 21.6378 0.716965 22.2857C0.265037 22.9336 0 23.7216 0 24.5714V40.5714C0 42.7806 1.79086 44.5714 4 44.5714H44C46.2091 44.5714 48 42.7806 48 40.5714V24.5714C48 23.7216 47.735 22.9336 47.283 22.2857C47.735 21.6378 48 20.8499 48 20V4C48 1.79086 46.2091 0 44 0H4ZM4 20.5714H44C44.3156 20.5714 44.5714 20.3156 44.5714 20V4C44.5714 3.68441 44.3156 3.42857 44 3.42857H4C3.68441 3.42857 3.42857 3.68441 3.42857 4V20C3.42857 20.3156 3.68441 20.5714 4 20.5714ZM4 24C3.68441 24 3.42857 24.2558 3.42857 24.5714V40.5714C3.42857 40.887 3.68441 41.1428 4 41.1428H44C44.3156 41.1428 44.5714 40.887 44.5714 40.5714V24.5714C44.5714 24.2558 44.3156 24 44 24H4Z" fill="#000072"/>
</svg>
