<svg width="36" height="37" viewBox="0 0 36 37" fill="none" xmlns="http://www.w3.org/2000/svg">
    <circle cx="18" cy="18.57" r="18" fill="#000072"/>
    <path d="M25.3259 12.2667C26 13.2296 26 14.5701 26 17.251C26 19.9319 26 21.2724 25.3259 22.2353C25.034 22.6522 24.659 23.0101 24.2223 23.2886C23.3409 23.8507 22.1577 23.9217 20 23.9307V23.932L18.8944 26.0424C18.5259 26.7459 17.4741 26.7459 17.1056 26.0424L16 23.932V23.9307C13.8423 23.9217 12.6591 23.8507 11.7777 23.2886C11.341 23.0101 10.966 22.6522 10.6741 22.2353C10 21.2724 10 19.9319 10 17.251C10 14.5701 10 13.2296 10.6741 12.2667C10.966 11.8499 11.341 11.4919 11.7777 11.2134C12.7866 10.57 14.1911 10.57 17 10.57H19C21.8089 10.57 23.2134 10.57 24.2223 11.2134C24.659 11.4919 25.034 11.8499 25.3259 12.2667Z" stroke="#FDFDFD" stroke-width="2" stroke-linecap="round" stroke-linejoin="round"/>
    <path d="M14 14.57L21 14.57" stroke="#FDFDFD" stroke-width="2" stroke-linecap="round" stroke-linejoin="round"/>
    <path d="M14 18.57H17" stroke="#FDFDFD" stroke-width="2" stroke-linecap="round" stroke-linejoin="round"/>
</svg>
