<svg width="37" height="37" viewBox="0 0 37 37" fill="none" xmlns="http://www.w3.org/2000/svg">
    <circle cx="18.2648" cy="18.813" r="18" fill="#000072"/>
    <path d="M18 10.57H7C6.44772 10.57 6 11.0177 6 11.57V26.57C6 27.1223 6.44772 27.57 7 27.57H15M17.5 27.57H29C29.5523 27.57 30 27.1223 30 26.57V11.57C30 11.0177 29.5523 10.57 29 10.57H21" stroke="#FDFDFD" stroke-width="2"/>
    <path d="M21.8064 6.57001L22.7928 6.73441L23.3561 3.35484L21.0633 5.90082L21.8064 6.57001ZM19.8064 18.57L18.82 18.4056L18.626 19.57H19.8064V18.57ZM11 18.57L10.2569 17.9008L8.75374 19.57H11L11 18.57ZM16.5466 18.57L17.533 18.7344L17.7271 17.57H16.5466V18.57ZM14.5467 30.57L13.5603 30.4056L12.997 33.7852L15.2898 31.2392L14.5467 30.57ZM25.3531 18.57L26.0962 19.2392L27.5993 17.57H25.3531V18.57ZM20.82 6.40561L18.82 18.4056L20.7928 18.7344L22.7928 6.73441L20.82 6.40561ZM11.7431 19.2392L22.5495 7.23919L21.0633 5.90082L10.2569 17.9008L11.7431 19.2392ZM16.5466 17.57L11 17.57L11 19.57L16.5466 19.57V17.57ZM15.5331 30.7344L17.533 18.7344L15.5603 18.4056L13.5603 30.4056L15.5331 30.7344ZM24.61 17.9008L13.8036 29.9008L15.2898 31.2392L26.0962 19.2392L24.61 17.9008ZM19.8064 19.57H25.3531V17.57H19.8064V19.57Z" fill="#FDFDFD"/>
</svg>
