<svg width="24" height="24" viewBox="0 0 24 24" fill="none" xmlns="http://www.w3.org/2000/svg">
    <path d="M20.9999 4.8L19.1332 6.2C18.787 6.45964 18.366 6.6 17.9332 6.6H13.7699C13.0528 6.6 12.3973 7.00512 12.0767 7.64647V7.64647C11.6809 8.43793 11.8863 9.39793 12.5711 9.95826L15.4759 12.3349C17.0498 13.6227 17.8643 15.62 17.6398 17.6412L17.5198 18.7206C17.4402 19.4369 17.2642 20.1392 16.9966 20.8083L16.1999 22.8" stroke="#000072" stroke-width="2"/>
    <path d="M0.600098 10.2L5.0382 9.46032C6.39184 9.23471 7.56539 10.4083 7.33978 11.7619L7.08578 13.2859C6.79709 15.018 7.67471 16.7373 9.24534 17.5226V17.5226C10.503 18.1514 11.1575 19.5705 10.8164 20.9347L10.2001 23.4" stroke="#000072" stroke-width="2"/>
    <circle cx="12" cy="12" r="11" stroke="#000072" stroke-width="2"/>
</svg>
