<svg width="11" height="16" viewBox="0 0 11 16" fill="none" xmlns="http://www.w3.org/2000/svg">
    <path d="M10.6805 13.1232C10.6353 12.8953 10.4112 12.7494 10.1847 12.8011C9.81716 12.885 9.24206 12.9872 8.62317 12.9872C6.67195 12.9872 5.11937 11.7913 4.44795 10.0499H8.35601C8.4497 10.0499 8.54059 10.018 8.61374 9.95945C8.68689 9.90091 8.73793 9.81922 8.75847 9.72782L8.97755 8.75294C9.0355 8.49506 8.83939 8.25 8.57508 8.25H3.96069C3.91909 7.75747 3.91208 7.27764 3.9654 6.79783H9.00453C9.09861 6.79783 9.18987 6.76568 9.26316 6.70669C9.33646 6.64771 9.38739 6.56544 9.40751 6.47353L9.63136 5.45071C9.68766 5.19344 9.49176 4.95 9.22838 4.95H4.47507C5.18433 3.40343 6.63004 2.37084 8.51823 2.37084C9.01618 2.37084 9.50011 2.44819 9.81936 2.51333C10.033 2.55692 10.2438 2.42746 10.3007 2.21691L10.7129 0.691763C10.7755 0.460041 10.6281 0.223713 10.3923 0.178991C9.97621 0.1001 9.30566 0 8.5812 0C5.2405 0 2.54478 2.07116 1.54945 4.95H0.4125C0.184697 4.95 0 5.1347 0 5.3625V6.38533C0 6.61313 0.184697 6.79783 0.4125 6.79783H1.15393C1.11925 7.26557 1.11334 7.80457 1.14771 8.25H0.4125C0.184697 8.25 0 8.4347 0 8.6625V9.63737C0 9.86518 0.184697 10.0499 0.4125 10.0499H1.44767C2.3079 13.155 4.99345 15.4 8.5812 15.4C9.4853 15.4 10.2505 15.2438 10.6815 15.1323C10.8935 15.0775 11.0262 14.8673 10.9836 14.6525L10.6805 13.1232Z" fill="#5771F9"/>
</svg>
