<svg width="48" height="45" viewBox="0 0 48 45" fill="none" xmlns="http://www.w3.org/2000/svg">
    <path fill-rule="evenodd" clip-rule="evenodd" d="M3.5 0.571411C1.567 0.571411 0 2.13842 0 4.07141V23.0714C0 25.0044 1.567 26.5714 3.5 26.5714H6V29.6572C6 31.2667 7.30474 32.5714 8.91421 32.5714C9.68711 32.5714 10.4284 32.2644 10.9749 31.7179L16.1213 26.5714H28.5C30.433 26.5714 32 25.0044 32 23.0714V4.07141C32 2.13841 30.433 0.571411 28.5 0.571411H3.5ZM3 4.07141C3 3.79527 3.22386 3.57141 3.5 3.57141H28.5C28.7761 3.57141 29 3.79527 29 4.07141V23.0714C29 23.3476 28.7761 23.5714 28.5 23.5714H15.5C15.1022 23.5714 14.7206 23.7295 14.4393 24.0108L9 29.4501V25.0714C9 24.243 8.32843 23.5714 7.5 23.5714H3.5C3.22386 23.5714 3 23.3476 3 23.0714V4.07141Z" fill="#000072"/>
    <path d="M45 16.0714C45 15.7953 44.7761 15.5714 44.5 15.5714H37.5C36.6716 15.5714 36 14.8998 36 14.0714C36 13.243 36.6716 12.5714 37.5 12.5714H44.5C46.433 12.5714 48 14.1384 48 16.0714V35.0714C48 37.0044 46.433 38.5714 44.5 38.5714H42V41.6572C42 43.2667 40.6953 44.5714 39.0858 44.5714C38.3129 44.5714 37.5716 44.2644 37.0251 43.7179L31.8787 38.5714H21.5C19.567 38.5714 18 37.0044 18 35.0714V32.1425C18 31.3141 18.6716 30.6425 19.5 30.6425C20.3284 30.6425 21 31.3141 21 32.1425V35.0714C21 35.3476 21.2239 35.5714 21.5 35.5714H32.5C32.8978 35.5714 33.2794 35.7295 33.5607 36.0108L39 41.4501V37.0714C39 36.243 39.6716 35.5714 40.5 35.5714H44.5C44.7761 35.5714 45 35.3476 45 35.0714V16.0714Z" fill="#000072"/>
</svg>
