<svg width="36" height="36" viewBox="0 0 36 36" fill="none" xmlns="http://www.w3.org/2000/svg">
    <circle cx="18" cy="18" r="18" fill="#FDFDFD"/>
    <path d="M19.1716 9H15C13.1144 9 12.1716 9 11.5858 9.58579C11 10.1716 11 11.1144 11 13V23C11 24.8856 11 25.8284 11.5858 26.4142C12.1716 27 13.1144 27 15 27H21C22.8856 27 23.8284 27 24.4142 26.4142C25 25.8284 25 24.8856 25 23V14.8284C25 14.4197 25 14.2153 24.9239 14.0315C24.8478 13.8478 24.7032 13.7032 24.4142 13.4142L20.5858 9.58579C20.2968 9.29676 20.1522 9.15224 19.9685 9.07612C19.7847 9 19.5803 9 19.1716 9Z" stroke="#000072" stroke-width="2"/>
    <path d="M19 9V13C19 13.9428 19 14.4142 19.2929 14.7071C19.5858 15 20.0572 15 21 15H25" stroke="#000072" stroke-width="2"/>
    <mask id="path-4-outside-1_17_363" maskUnits="userSpaceOnUse" x="7" y="15" width="22" height="10" fill="black">
        <rect fill="white" x="7" y="15" width="22" height="10"/>
        <path d="M9.914 23V17.4H12.338C12.8393 17.4 13.2713 17.4827 13.634 17.648C13.9967 17.808 14.2767 18.04 14.474 18.344C14.6713 18.648 14.77 19.0107 14.77 19.432C14.77 19.848 14.6713 20.208 14.474 20.512C14.2767 20.816 13.9967 21.0507 13.634 21.216C13.2713 21.376 12.8393 21.456 12.338 21.456H10.634L11.21 20.872V23H9.914ZM11.21 21.016L10.634 20.4H12.266C12.666 20.4 12.9647 20.3147 13.162 20.144C13.3593 19.9733 13.458 19.736 13.458 19.432C13.458 19.1227 13.3593 18.8827 13.162 18.712C12.9647 18.5413 12.666 18.456 12.266 18.456H10.634L11.21 17.84V21.016ZM15.6953 23V17.4H18.2393C18.8473 17.4 19.3833 17.5173 19.8473 17.752C20.3113 17.9813 20.6739 18.304 20.9353 18.72C21.1966 19.136 21.3273 19.6293 21.3273 20.2C21.3273 20.7653 21.1966 21.2587 20.9353 21.68C20.6739 22.096 20.3113 22.4213 19.8473 22.656C19.3833 22.8853 18.8473 23 18.2393 23H15.6953ZM16.9913 21.936H18.1753C18.5486 21.936 18.8713 21.8667 19.1432 21.728C19.4206 21.584 19.6339 21.3813 19.7833 21.12C19.9379 20.8587 20.0153 20.552 20.0153 20.2C20.0153 19.8427 19.9379 19.536 19.7833 19.28C19.6339 19.0187 19.4206 18.8187 19.1432 18.68C18.8713 18.536 18.5486 18.464 18.1753 18.464H16.9913V21.936ZM23.5046 19.92H26.1926V20.96H23.5046V19.92ZM23.6006 23H22.3046V17.4H26.5366V18.44H23.6006V23Z"/>
    </mask>
    <path d="M9.914 23V17.4H12.338C12.8393 17.4 13.2713 17.4827 13.634 17.648C13.9967 17.808 14.2767 18.04 14.474 18.344C14.6713 18.648 14.77 19.0107 14.77 19.432C14.77 19.848 14.6713 20.208 14.474 20.512C14.2767 20.816 13.9967 21.0507 13.634 21.216C13.2713 21.376 12.8393 21.456 12.338 21.456H10.634L11.21 20.872V23H9.914ZM11.21 21.016L10.634 20.4H12.266C12.666 20.4 12.9647 20.3147 13.162 20.144C13.3593 19.9733 13.458 19.736 13.458 19.432C13.458 19.1227 13.3593 18.8827 13.162 18.712C12.9647 18.5413 12.666 18.456 12.266 18.456H10.634L11.21 17.84V21.016ZM15.6953 23V17.4H18.2393C18.8473 17.4 19.3833 17.5173 19.8473 17.752C20.3113 17.9813 20.6739 18.304 20.9353 18.72C21.1966 19.136 21.3273 19.6293 21.3273 20.2C21.3273 20.7653 21.1966 21.2587 20.9353 21.68C20.6739 22.096 20.3113 22.4213 19.8473 22.656C19.3833 22.8853 18.8473 23 18.2393 23H15.6953ZM16.9913 21.936H18.1753C18.5486 21.936 18.8713 21.8667 19.1432 21.728C19.4206 21.584 19.6339 21.3813 19.7833 21.12C19.9379 20.8587 20.0153 20.552 20.0153 20.2C20.0153 19.8427 19.9379 19.536 19.7833 19.28C19.6339 19.0187 19.4206 18.8187 19.1432 18.68C18.8713 18.536 18.5486 18.464 18.1753 18.464H16.9913V21.936ZM23.5046 19.92H26.1926V20.96H23.5046V19.92ZM23.6006 23H22.3046V17.4H26.5366V18.44H23.6006V23Z" fill="#000072"/>
    <path d="M9.914 23H7.914C7.914 24.1046 8.80943 25 9.914 25V23ZM9.914 17.4V15.4C8.80943 15.4 7.914 16.2954 7.914 17.4H9.914ZM13.634 17.648L12.8044 19.4678C12.8118 19.4712 12.8193 19.4745 12.8267 19.4778L13.634 17.648ZM14.474 18.344L12.7964 19.4329L12.7964 19.4329L14.474 18.344ZM13.634 21.216L14.4413 23.0458C14.4487 23.0425 14.4562 23.0392 14.4636 23.0358L13.634 21.216ZM10.634 21.456L9.21007 20.0516C8.64379 20.6257 8.47772 21.4838 8.78889 22.2277C9.10006 22.9717 9.82759 23.456 10.634 23.456V21.456ZM11.21 20.872H13.21C13.21 20.0606 12.7197 19.3295 11.969 19.0216C11.2183 18.7137 10.3559 18.8899 9.78607 19.4676L11.21 20.872ZM11.21 23V25C12.3146 25 13.21 24.1046 13.21 23H11.21ZM11.21 21.016L9.74915 22.382C10.31 22.9818 11.1805 23.1778 11.9443 22.8763C12.7081 22.5749 13.21 21.8372 13.21 21.016H11.21ZM10.634 20.4V18.4C9.83727 18.4 9.11653 18.8729 8.79934 19.6038C8.48214 20.3346 8.62899 21.184 9.17315 21.766L10.634 20.4ZM10.634 18.456L9.17315 17.09C8.62899 17.672 8.48214 18.5214 8.79934 19.2522C9.11653 19.9831 9.83727 20.456 10.634 20.456V18.456ZM11.21 17.84H13.21C13.21 17.0188 12.7081 16.2811 11.9443 15.9797C11.1805 15.6782 10.31 15.8742 9.74915 16.474L11.21 17.84ZM11.914 23V17.4H7.914V23H11.914ZM9.914 19.4H12.338V15.4H9.914V19.4ZM12.338 19.4C12.6246 19.4 12.7602 19.4477 12.8044 19.4678L14.4636 15.8282C13.7825 15.5177 13.0541 15.4 12.338 15.4V19.4ZM12.8267 19.4778C12.8543 19.49 12.8543 19.4939 12.84 19.482C12.8333 19.4765 12.8252 19.469 12.8169 19.4596C12.8086 19.4502 12.8017 19.441 12.7964 19.4329L16.1516 17.2551C15.7226 16.5942 15.1252 16.1199 14.4413 15.8182L12.8267 19.4778ZM12.7964 19.4329C12.7881 19.42 12.781 19.4069 12.7756 19.3946C12.7701 19.3824 12.7673 19.3734 12.7661 19.369C12.7637 19.36 12.77 19.3776 12.77 19.432H16.77C16.77 18.6884 16.5918 17.9332 16.1516 17.2551L12.7964 19.4329ZM12.77 19.432C12.77 19.4815 12.7642 19.496 12.7671 19.4853C12.7685 19.4803 12.7715 19.4711 12.7768 19.4592C12.7821 19.4472 12.7888 19.4348 12.7964 19.4231L16.1516 21.6009C16.5891 20.9269 16.77 20.1759 16.77 19.432H12.77ZM12.7964 19.4231C12.801 19.4161 12.8068 19.4083 12.8136 19.4006C12.8205 19.3928 12.8267 19.387 12.8313 19.3832C12.8358 19.3794 12.8371 19.3789 12.8337 19.381C12.8301 19.3832 12.8209 19.3887 12.8044 19.3962L14.4636 23.0358C15.1369 22.7289 15.7265 22.2558 16.1516 21.6009L12.7964 19.4231ZM12.8267 19.3862C12.7762 19.4084 12.6324 19.456 12.338 19.456V23.456C13.0463 23.456 13.7664 23.3436 14.4413 23.0458L12.8267 19.3862ZM12.338 19.456H10.634V23.456H12.338V19.456ZM12.0579 22.8604L12.6339 22.2764L9.78607 19.4676L9.21007 20.0516L12.0579 22.8604ZM9.21 20.872V23H13.21V20.872H9.21ZM11.21 21H9.914V25H11.21V21ZM12.6708 19.65L12.0948 19.034L9.17315 21.766L9.74915 22.382L12.6708 19.65ZM10.634 22.4H12.266V18.4H10.634V22.4ZM12.266 22.4C12.9007 22.4 13.759 22.2719 14.4703 21.6567L11.8537 18.6313C12.0131 18.4934 12.1627 18.4352 12.2406 18.413C12.3126 18.3924 12.3306 18.4 12.266 18.4V22.4ZM14.4703 21.6567C15.1813 21.0418 15.458 20.2106 15.458 19.432H11.458C11.458 19.3678 11.4687 19.2351 11.5372 19.0702C11.609 18.8977 11.7211 18.7459 11.8537 18.6313L14.4703 21.6567ZM15.458 19.432C15.458 18.6605 15.1893 17.8211 14.4703 17.1993L11.8537 20.2247C11.7168 20.1063 11.6047 19.9518 11.5342 19.7805C11.4673 19.6176 11.458 19.4891 11.458 19.432H15.458ZM14.4703 17.1993C13.759 16.5841 12.9007 16.456 12.266 16.456V20.456C12.3306 20.456 12.3126 20.4636 12.2406 20.443C12.1627 20.4208 12.0131 20.3626 11.8537 20.2247L14.4703 17.1993ZM12.266 16.456H10.634V20.456H12.266V16.456ZM12.0948 19.822L12.6708 19.206L9.74915 16.474L9.17315 17.09L12.0948 19.822ZM9.21 17.84V21.016H13.21V17.84H9.21ZM15.6952 23H13.6953C13.6953 24.1046 14.5907 25 15.6952 25V23ZM15.6952 17.4V15.4C14.5907 15.4 13.6953 16.2954 13.6953 17.4H15.6952ZM19.8472 17.752L18.9446 19.5367C18.9501 19.5395 18.9556 19.5422 18.9611 19.545L19.8472 17.752ZM20.9353 18.72L19.2417 19.7839L20.9353 18.72ZM20.9353 21.68L22.6288 22.7439L22.6349 22.7342L20.9353 21.68ZM19.8472 22.656L20.7334 24.449C20.7389 24.4462 20.7444 24.4435 20.7499 24.4407L19.8472 22.656ZM16.9913 21.936H14.9913C14.9913 23.0406 15.8867 23.936 16.9913 23.936V21.936ZM19.1432 21.728L20.0516 23.5098C20.0561 23.5076 20.0605 23.5053 20.0649 23.503L19.1432 21.728ZM19.7833 21.12L18.0621 20.1014C18.0569 20.1101 18.0518 20.1189 18.0468 20.1277L19.7833 21.12ZM19.7833 19.28L18.0468 20.2723C18.0548 20.2864 18.063 20.3003 18.0714 20.3142L19.7833 19.28ZM19.1432 18.68L18.2075 20.4476C18.2212 20.4548 18.235 20.4619 18.2488 20.4689L19.1432 18.68ZM16.9913 18.464V16.464C15.8867 16.464 14.9913 17.3594 14.9913 18.464H16.9913ZM17.6952 23V17.4H13.6953V23H17.6952ZM15.6952 19.4H18.2393V15.4H15.6952V19.4ZM18.2393 19.4C18.5867 19.4 18.8042 19.4657 18.9446 19.5367L20.7499 15.9673C19.9623 15.5689 19.1078 15.4 18.2393 15.4V19.4ZM18.9611 19.545C19.1123 19.6197 19.1877 19.6979 19.2417 19.7839L22.6288 17.6561C22.1602 16.9101 21.5102 16.343 20.7334 15.959L18.9611 19.545ZM19.2417 19.7839C19.2722 19.8325 19.3273 19.9438 19.3273 20.2H23.3273C23.3273 19.3149 23.121 18.4395 22.6288 17.6561L19.2417 19.7839ZM19.3273 20.2C19.3273 20.4463 19.2742 20.5636 19.2356 20.6258L22.6349 22.7342C23.1189 21.9537 23.3273 21.0844 23.3273 20.2H19.3273ZM19.2417 20.6161C19.1851 20.7062 19.1041 20.7906 18.9446 20.8713L20.7499 24.4407C21.5184 24.0521 22.1628 23.4858 22.6288 22.7439L19.2417 20.6161ZM18.9611 20.863C18.8169 20.9343 18.5933 21 18.2393 21V25C19.1012 25 19.9496 24.8363 20.7334 24.449L18.9611 20.863ZM18.2393 21H15.6952V25H18.2393V21ZM16.9913 23.936H18.1753V19.936H16.9913V23.936ZM18.1753 23.936C18.795 23.936 19.4424 23.8204 20.0516 23.5098L18.2349 19.9462C18.2653 19.9307 18.2825 19.9275 18.2771 19.9286C18.2705 19.9301 18.2388 19.936 18.1753 19.936V23.936ZM20.0649 23.503C20.6697 23.189 21.1721 22.7206 21.5197 22.1123L18.0468 20.1277C18.0666 20.0931 18.0959 20.054 18.1338 20.018C18.1712 19.9824 18.2042 19.9621 18.2216 19.953L20.0649 23.503ZM21.5044 22.1386C21.869 21.5227 22.0153 20.8526 22.0153 20.2H18.0153C18.0153 20.2294 18.0121 20.2283 18.018 20.205C18.0243 20.18 18.0377 20.1426 18.0621 20.1014L21.5044 22.1386ZM22.0153 20.2C22.0153 19.5495 21.8721 18.8698 21.4951 18.2458L18.0714 20.3142C18.0406 20.2633 18.0249 20.2186 18.018 20.191C18.0115 20.1654 18.0153 20.1653 18.0153 20.2H22.0153ZM21.5197 18.2877C21.1683 17.6728 20.6569 17.2007 20.0377 16.8911L18.2488 20.4689C18.225 20.4569 18.186 20.4331 18.1434 20.3931C18.1003 20.3527 18.0681 20.3096 18.0468 20.2723L21.5197 18.2877ZM20.079 16.9124C19.4635 16.5865 18.806 16.464 18.1753 16.464V20.464C18.2339 20.464 18.2603 20.4697 18.2617 20.47C18.2622 20.4701 18.2569 20.469 18.2469 20.4653C18.2369 20.4617 18.2233 20.456 18.2075 20.4476L20.079 16.9124ZM18.1753 16.464H16.9913V20.464H18.1753V16.464ZM14.9913 18.464V21.936H18.9913V18.464H14.9913ZM23.5046 19.92V17.92C22.4001 17.92 21.5046 18.8154 21.5046 19.92H23.5046ZM26.1926 19.92H28.1926C28.1926 18.8154 27.2972 17.92 26.1926 17.92V19.92ZM26.1926 20.96V22.96C27.2972 22.96 28.1926 22.0646 28.1926 20.96H26.1926ZM23.5046 20.96H21.5046C21.5046 22.0646 22.4001 22.96 23.5046 22.96V20.96ZM23.6006 23V25C24.7052 25 25.6006 24.1046 25.6006 23H23.6006ZM22.3046 23H20.3046C20.3046 24.1046 21.2001 25 22.3046 25V23ZM22.3046 17.4V15.4C21.2001 15.4 20.3046 16.2954 20.3046 17.4H22.3046ZM26.5366 17.4H28.5366C28.5366 16.2954 27.6412 15.4 26.5366 15.4V17.4ZM26.5366 18.44V20.44C27.6412 20.44 28.5366 19.5446 28.5366 18.44H26.5366ZM23.6006 18.44V16.44C22.4961 16.44 21.6006 17.3354 21.6006 18.44H23.6006ZM23.5046 21.92H26.1926V17.92H23.5046V21.92ZM24.1926 19.92V20.96H28.1926V19.92H24.1926ZM26.1926 18.96H23.5046V22.96H26.1926V18.96ZM25.5046 20.96V19.92H21.5046V20.96H25.5046ZM23.6006 21H22.3046V25H23.6006V21ZM24.3046 23V17.4H20.3046V23H24.3046ZM22.3046 19.4H26.5366V15.4H22.3046V19.4ZM24.5366 17.4V18.44H28.5366V17.4H24.5366ZM26.5366 16.44H23.6006V20.44H26.5366V16.44ZM21.6006 18.44V23H25.6006V18.44H21.6006Z" fill="#FDFDFD" mask="url(#path-4-outside-1_17_363)"/>
</svg>
