<svg width="36" height="37" viewBox="0 0 36 37" fill="none" xmlns="http://www.w3.org/2000/svg">
    <circle cx="18" cy="18.57" r="18" fill="#000072"/>
    <path d="M20.1363 9.93141L21.1313 9.83191V9.83191L20.1363 9.93141ZM19.9839 9.11166L20.8727 8.65331L20.8727 8.65331L19.9839 9.11166ZM20.4311 11.3877L19.636 11.9941L19.636 11.9941L20.4311 11.3877ZM21.3597 11.7723L21.2263 10.7812H21.2263L21.3597 11.7723ZM22.5979 10.9511L23.2311 11.725V11.725L22.5979 10.9511ZM23.2852 10.4792L22.9808 9.52666V9.52666L23.2852 10.4792ZM23.9872 10.5142L23.5896 11.4318L23.5896 11.4318L23.9872 10.5142ZM24.6241 11.0521L23.917 11.7592L23.917 11.7593L24.6241 11.0521ZM25.5177 11.9457L26.2248 11.2386L26.2248 11.2386L25.5177 11.9457ZM26.0557 12.5828L25.1381 12.9803L25.1381 12.9803L26.0557 12.5828ZM26.0907 13.2847L25.1381 12.9803V12.9803L26.0907 13.2847ZM25.6188 13.9721L24.8447 13.3388L24.8379 13.3474L25.6188 13.9721ZM25.6187 13.9721L26.3927 14.6054L26.3996 14.5968L25.6187 13.9721ZM24.7974 15.2106L25.7885 15.3439V15.3439L24.7974 15.2106ZM25.1819 16.1389L24.5754 16.934V16.934L25.1819 16.1389ZM26.6385 16.4339L26.539 17.4289H26.539L26.6385 16.4339ZM27.4584 16.5863L27 17.475L27.4584 16.5863ZM27.9299 17.1073L27 17.475L27 17.475L27.9299 17.1073ZM27.93 20.0327L28.8599 20.4003L28.8599 20.4003L27.93 20.0327ZM27.4583 20.5538L27 19.665V19.665L27.4583 20.5538ZM26.6386 20.7062L26.5391 19.7111L26.5268 19.7123L26.5145 19.7139L26.6386 20.7062ZM26.6385 20.7062L26.738 21.7012L26.7503 21.7L26.7626 21.6984L26.6385 20.7062ZM25.1824 21.0009L24.576 20.2057L24.576 20.2057L25.1824 21.0009ZM24.7977 21.9296L25.7888 21.7961L25.7888 21.7961L24.7977 21.9296ZM25.6188 23.1676L26.3997 22.5429L26.3928 22.5344L25.6188 23.1676ZM25.6188 23.1676L24.8379 23.7923L24.8449 23.8008L25.6188 23.1676ZM26.0906 23.8548L27.0432 23.5503L27.0432 23.5503L26.0906 23.8548ZM26.0556 24.5569L26.9731 24.9547L26.9731 24.9547L26.0556 24.5569ZM25.5178 25.1937L26.2249 25.9009L26.2249 25.9008L25.5178 25.1937ZM23.9872 26.6253L24.3849 27.5429H24.3849L23.9872 26.6253ZM23.2851 26.6604L23.5895 25.7078H23.5895L23.2851 26.6604ZM22.5979 26.1885L23.2311 25.4145L23.2226 25.4076L22.5979 26.1885ZM22.5978 26.1885L21.9646 26.9625L21.9731 26.9694L22.5978 26.1885ZM21.3598 25.3673L21.2263 26.3584L21.2263 26.3584L21.3598 25.3673ZM20.4311 25.752L21.2263 26.3584L21.2263 26.3584L20.4311 25.752ZM20.1363 27.2084L21.1314 27.3079V27.3079L20.1363 27.2084ZM19.9839 28.0284L19.0952 27.57L19.0952 27.57L19.9839 28.0284ZM19.4629 28.4999L19.8306 29.4299L19.4629 28.4999ZM16.5374 28.4999L16.9051 27.57H16.9051L16.5374 28.4999ZM16.0164 28.0285L16.9051 27.57L16.9051 27.57L16.0164 28.0285ZM15.864 27.2085L14.869 27.308L15.864 27.2085ZM15.569 25.7518L16.364 25.1452H16.364L15.569 25.7518ZM14.6408 25.3673L14.5075 24.3762H14.5075L14.6408 25.3673ZM13.4021 26.1888L12.7688 25.4148H12.7688L13.4021 26.1888ZM12.7144 26.6609L13.0187 27.6135L13.0187 27.6135L12.7144 26.6609ZM12.0127 26.6259L11.6152 27.5435H11.6152L12.0127 26.6259ZM11.3755 26.0877L12.0826 25.3806L12.0826 25.3806L11.3755 26.0877ZM10.4821 25.1944L9.77499 25.9015L9.77499 25.9015L10.4821 25.1944ZM9.94406 24.5573L10.8616 24.1597L10.8616 24.1597L9.94406 24.5573ZM9.90906 23.8554L8.95648 23.5511H8.95648L9.90906 23.8554ZM10.381 23.1679L9.60708 22.5346H9.60708L10.381 23.1679ZM11.2024 21.9295L10.2113 21.7961L10.2113 21.7961L11.2024 21.9295ZM10.8178 21.001L11.4243 20.206L11.4243 20.206L10.8178 21.001ZM9.36141 20.7061L9.46091 19.7111H9.46091L9.36141 20.7061ZM8.54163 20.5538L8.08326 21.4425H8.08326L8.54163 20.5538ZM8.07004 20.0327L7.14008 20.4003L7.14008 20.4003L8.07004 20.0327ZM8.07007 17.1073L7.14014 16.7395L7.14014 16.7395L8.07007 17.1073ZM8.54156 16.5863L8.08311 15.6975L8.08311 15.6975L8.54156 16.5863ZM9.36151 16.4339V15.4339H9.31163L9.262 15.4388L9.36151 16.4339ZM9.36151 16.4339V17.4339H9.41139L9.46102 17.4289L9.36151 16.4339ZM10.8182 16.1389L10.2116 15.3439H10.2116L10.8182 16.1389ZM11.2027 15.2106L12.1938 15.0774V15.0774L11.2027 15.2106ZM10.3811 13.9719L9.60719 14.6051H9.60719L10.3811 13.9719ZM9.90898 13.2841L10.8616 12.9799L10.8616 12.9799L9.90898 13.2841ZM9.94397 12.5824L9.02635 12.185L9.02635 12.185L9.94397 12.5824ZM10.4822 11.9451L11.1893 12.6522L11.1893 12.6522L10.4822 11.9451ZM11.3754 11.0519L12.0825 11.759L12.0825 11.759L11.3754 11.0519ZM12.0127 10.5137L11.6152 9.59608L11.6152 9.59608L12.0127 10.5137ZM12.7144 10.4787L12.4102 11.4313L12.4102 11.4313L12.7144 10.4787ZM13.4022 10.9509L12.7689 11.7248L12.7689 11.7248L13.4022 10.9509ZM14.6407 11.7723L14.5073 12.7634H14.5073L14.6407 11.7723ZM15.5691 11.3877L14.774 10.7813V10.7813L15.5691 11.3877ZM15.864 9.93139L16.8591 10.0309L16.864 9.98126V9.93139H15.864ZM15.864 9.93138L14.869 9.83188L14.864 9.88151V9.93138H15.864ZM16.0164 9.11166L15.1276 8.6533L15.1276 8.65331L16.0164 9.11166ZM16.5375 8.64004L16.9051 9.57001L16.9051 9.57001L16.5375 8.64004ZM19.4628 8.64004L19.0952 9.57001L19.0952 9.57001L19.4628 8.64004ZM21.1313 9.83191C21.111 9.6283 21.0914 9.42695 21.0628 9.25683C21.0326 9.07689 20.983 8.86712 20.8727 8.65331L19.0952 9.57001C19.0722 9.5255 19.0771 9.50879 19.0904 9.58799C19.1053 9.67702 19.1183 9.80088 19.1413 10.0309L21.1313 9.83191ZM21.2263 10.7812C21.2895 10.8642 21.2694 10.9008 21.2343 10.7058C21.2009 10.5203 21.174 10.2591 21.1313 9.83191L19.1413 10.0309C19.1806 10.4245 19.2153 10.7788 19.2659 11.06C19.3148 11.3316 19.401 11.686 19.636 11.9941L21.2263 10.7812ZM21.2263 10.7812L21.2263 10.7812L19.636 11.9941C20.0719 12.5656 20.7808 12.8593 21.4931 12.7634L21.2263 10.7812ZM21.9646 10.1771C21.6324 10.4489 21.4287 10.6147 21.2739 10.7222C21.1112 10.8353 21.1229 10.7952 21.2263 10.7812L21.4931 12.7634C21.8771 12.7117 22.1887 12.522 22.4153 12.3645C22.6499 12.2015 22.925 11.9755 23.2311 11.725L21.9646 10.1771ZM22.9808 9.52666C22.7517 9.59988 22.5683 9.71312 22.4197 9.81899C22.2792 9.91907 22.123 10.0476 21.9646 10.1771L23.2311 11.725C23.41 11.5787 23.5067 11.5002 23.5802 11.4478C23.6456 11.4013 23.6372 11.4165 23.5896 11.4318L22.9808 9.52666ZM24.3849 9.59669C23.9407 9.40421 23.4419 9.37932 22.9808 9.52666L23.5896 11.4318V11.4318L24.3849 9.59669ZM25.3313 10.345C25.1866 10.2004 25.0439 10.057 24.9141 9.9434C24.7768 9.82327 24.6056 9.69235 24.3849 9.59669L23.5896 11.4318C23.5436 11.4119 23.5368 11.3958 23.5972 11.4487C23.6652 11.5081 23.7536 11.5958 23.917 11.7592L25.3313 10.345ZM26.2248 11.2386L25.3313 10.345L23.917 11.7593L24.8106 12.6528L26.2248 11.2386ZM26.9733 12.1852C26.8776 11.9644 26.7467 11.7932 26.6265 11.6558C26.5129 11.526 26.3695 11.3833 26.2248 11.2386L24.8106 12.6528C24.9741 12.8163 25.0618 12.9047 25.1212 12.9726C25.1741 13.0331 25.158 13.0263 25.1381 12.9803L26.9733 12.1852ZM27.0433 13.589C27.1905 13.128 27.1657 12.6292 26.9733 12.1852L25.1381 12.9803V12.9803L27.0433 13.589ZM26.3927 14.6053C26.5223 14.447 26.6508 14.2907 26.7509 14.1502C26.8568 14.0016 26.9701 13.8181 27.0433 13.589L25.1381 12.9803C25.1534 12.9326 25.1686 12.9243 25.122 12.9897C25.0697 13.0632 24.9912 13.1599 24.8448 13.3389L26.3927 14.6053ZM26.3996 14.5968L26.3996 14.5968L24.8379 13.3474L24.8379 13.3474L26.3996 14.5968ZM25.7885 15.3439C25.7746 15.4472 25.7344 15.4589 25.8475 15.2962C25.9551 15.1414 26.1208 14.9377 26.3927 14.6054L24.8448 13.3389C24.5943 13.6451 24.3682 13.9202 24.2052 14.1548C24.0476 14.3815 23.858 14.6932 23.8063 15.0772L25.7885 15.3439ZM25.7885 15.3439L25.7885 15.3439L23.8063 15.0772C23.7105 15.7894 24.0041 16.4982 24.5754 16.934L25.7885 15.3439ZM26.738 15.4388C26.3108 15.3961 26.0494 15.3692 25.8639 15.3358C25.6689 15.3007 25.7055 15.2806 25.7885 15.3439L24.5754 16.934C24.8835 17.169 25.238 17.2553 25.5097 17.3042C25.7909 17.3548 26.1453 17.3895 26.539 17.4289L26.738 15.4388ZM27.9168 15.6975C27.703 15.5872 27.4932 15.5376 27.3132 15.5074C27.1431 15.4788 26.9416 15.4592 26.738 15.4388L26.539 17.4289C26.7691 17.4519 26.893 17.4648 26.982 17.4798C27.0612 17.4931 27.0445 17.498 27 17.475L27.9168 15.6975ZM28.8599 16.7396C28.6819 16.2896 28.3469 15.9194 27.9168 15.6975L27 17.475L27 17.475L28.8599 16.7396ZM29 17.9383C29 17.7336 29.0005 17.5313 28.989 17.3591C28.9769 17.177 28.9484 16.9633 28.8599 16.7396L27 17.475C26.9816 17.4284 26.9881 17.4123 26.9935 17.4924C26.9995 17.5825 27 17.7071 27 17.9383H29ZM29 19.2018V17.9383H27V19.2018H29ZM28.8599 20.4003C28.9484 20.1766 28.9769 19.9629 28.989 19.7809C29.0005 19.6088 29 19.4065 29 19.2018H27C27 19.433 26.9995 19.5575 26.9935 19.6476C26.9881 19.7277 26.9816 19.7116 27 19.665L28.8599 20.4003ZM27.9167 21.4426C28.3469 21.2207 28.682 20.8504 28.8599 20.4003L27 19.665L27 19.665L27.9167 21.4426ZM26.7381 21.7012C26.9417 21.6808 27.143 21.6612 27.3132 21.6326C27.4931 21.6024 27.7029 21.5528 27.9167 21.4426L27 19.665C27.0445 19.6421 27.0612 19.647 26.982 19.6603C26.893 19.6752 26.7691 19.6881 26.5391 19.7111L26.7381 21.7012ZM26.7626 21.6984L26.7626 21.6984L26.5145 19.7139L26.5145 19.7139L26.7626 21.6984ZM25.7888 21.7961C25.7058 21.8593 25.6692 21.8392 25.8642 21.8041C26.0497 21.7708 26.3109 21.7439 26.738 21.7012L26.539 19.7111C26.1455 19.7505 25.7912 19.7852 25.5101 19.8357C25.2385 19.8846 24.8841 19.9708 24.576 20.2057L25.7888 21.7961ZM25.7888 21.7961V21.7961L24.576 20.2057C24.0044 20.6416 23.7107 21.3507 23.8067 22.0632L25.7888 21.7961ZM26.3928 22.5344C26.121 22.2022 25.9553 21.9985 25.8478 21.8438C25.7347 21.6811 25.7749 21.6928 25.7888 21.7961L23.8067 22.0632C23.8584 22.4471 24.048 22.7586 24.2055 22.9852C24.3685 23.2198 24.5944 23.4948 24.8449 23.8008L26.3928 22.5344ZM26.3997 22.5429L26.3997 22.5429L24.838 23.7923L24.838 23.7923L26.3997 22.5429ZM27.0432 23.5503C26.9699 23.3213 26.8567 23.1379 26.7509 22.9893C26.6508 22.8489 26.5223 22.6927 26.3928 22.5344L24.8449 23.8008C24.9912 23.9797 25.0697 24.0764 25.122 24.1499C25.1686 24.2153 25.1533 24.2069 25.1381 24.1592L27.0432 23.5503ZM26.9731 24.9547C27.1657 24.5105 27.1906 24.0115 27.0432 23.5503L25.1381 24.1592L25.1381 24.1592L26.9731 24.9547ZM26.2249 25.9008C26.3695 25.7562 26.5129 25.6136 26.6265 25.4838C26.7466 25.3465 26.8775 25.1753 26.9731 24.9547L25.1381 24.1592C25.158 24.1133 25.174 24.1065 25.1212 24.1669C25.0618 24.2348 24.9741 24.3232 24.8107 24.4866L26.2249 25.9008ZM26.2249 25.9009L26.2249 25.9009L24.8107 24.4866L24.8107 24.4867L26.2249 25.9009ZM25.3312 26.7946L26.2249 25.9009L24.8107 24.4867L23.917 25.3803L25.3312 26.7946ZM24.3849 27.5429C24.6056 27.4472 24.7768 27.3163 24.9141 27.1962C25.0439 27.0826 25.1865 26.9392 25.3312 26.7946L23.917 25.3803C23.7536 25.5438 23.6651 25.6315 23.5972 25.6909C23.5368 25.7437 23.5436 25.7277 23.5895 25.7078L24.3849 27.5429ZM22.9807 27.6129C23.4418 27.7603 23.9407 27.7354 24.3849 27.5429L23.5895 25.7078L23.5895 25.7078L22.9807 27.6129ZM21.9646 26.9625C22.123 27.092 22.2792 27.2205 22.4196 27.3206C22.5682 27.4264 22.7516 27.5397 22.9807 27.6129L23.5895 25.7078C23.6372 25.723 23.6456 25.7383 23.5802 25.6917C23.5067 25.6394 23.41 25.5609 23.2311 25.4146L21.9646 26.9625ZM21.9731 26.9694L21.9732 26.9694L23.2226 25.4076L23.2225 25.4076L21.9731 26.9694ZM21.2263 26.3584C21.123 26.3445 21.1113 26.3043 21.274 26.4174C21.4287 26.5249 21.6324 26.6907 21.9646 26.9625L23.2311 25.4145C22.925 25.1641 22.65 24.9381 22.4154 24.7751C22.1888 24.6176 21.8772 24.428 21.4932 24.3763L21.2263 26.3584ZM21.2263 26.3584H21.2263L21.4932 24.3763C20.7809 24.2804 20.0719 24.574 19.636 25.1456L21.2263 26.3584ZM21.1314 27.3079C21.1741 26.8807 21.2009 26.6194 21.2343 26.4339C21.2694 26.2388 21.2895 26.2755 21.2263 26.3584L19.636 25.1456C19.401 25.4537 19.3148 25.8081 19.2659 26.0797C19.2153 26.3609 19.1806 26.7152 19.1413 27.1089L21.1314 27.3079ZM20.8726 28.4869C20.9829 28.273 21.0326 28.0632 21.0628 27.8832C21.0914 27.713 21.111 27.5116 21.1314 27.3079L19.1413 27.1089C19.1183 27.339 19.1054 27.4629 19.0904 27.552C19.0771 27.6313 19.0722 27.6145 19.0952 27.57L20.8726 28.4869ZM19.8306 29.4299C20.2806 29.2519 20.6508 28.9169 20.8726 28.4869L19.0952 27.57L19.0952 27.57L19.8306 29.4299ZM18.6319 29.57C18.8365 29.57 19.0389 29.5705 19.211 29.559C19.3932 29.5469 19.6069 29.5184 19.8306 29.4299L19.0952 27.57C19.1417 27.5516 19.1579 27.5581 19.0777 27.5635C18.9877 27.5695 18.8631 27.57 18.6319 27.57V29.57ZM17.3685 29.57H18.6319V27.57H17.3685V29.57ZM16.1697 29.4299C16.3934 29.5184 16.6072 29.5469 16.7893 29.559C16.9614 29.5705 17.1638 29.57 17.3685 29.57V27.57C17.1372 27.57 17.0127 27.5695 16.9226 27.5635C16.8424 27.5581 16.8586 27.5516 16.9051 27.57L16.1697 29.4299ZM15.1277 28.4869C15.3495 28.9169 15.7197 29.2519 16.1697 29.4299L16.9051 27.57H16.9051L15.1277 28.4869ZM14.869 27.308C14.8893 27.5117 14.909 27.7131 14.9375 27.8832C14.9677 28.0632 15.0174 28.273 15.1277 28.4869L16.9051 27.57C16.9281 27.6145 16.9232 27.6312 16.9099 27.552C16.895 27.463 16.882 27.3391 16.859 27.109L14.869 27.308ZM14.774 26.3584C14.7107 26.2754 14.7309 26.2387 14.766 26.4338C14.7994 26.6194 14.8262 26.8807 14.869 27.308L16.859 27.109C16.8197 26.7153 16.785 26.3609 16.7343 26.0796C16.6854 25.8079 16.5991 25.4533 16.364 25.1452L14.774 26.3584ZM14.774 26.3584L14.774 26.3584L16.364 25.1452C15.9282 24.574 15.2196 24.2805 14.5075 24.3762L14.774 26.3584ZM14.0353 26.9628C14.3677 26.6908 14.5715 26.525 14.7263 26.4174C14.8891 26.3043 14.8774 26.3445 14.774 26.3584L14.5075 24.3762C14.1234 24.4278 13.8117 24.6175 13.5849 24.7751C13.3503 24.9382 13.0751 25.1643 12.7688 25.4148L14.0353 26.9628ZM13.0187 27.6135C13.2479 27.5403 13.4314 27.427 13.58 27.3211C13.7206 27.2209 13.8769 27.0924 14.0353 26.9628L12.7688 25.4148C12.5899 25.5613 12.4931 25.6398 12.4196 25.6922C12.3541 25.7388 12.3625 25.7235 12.4102 25.7083L13.0187 27.6135ZM11.6152 27.5435C12.0592 27.7358 12.5578 27.7607 13.0187 27.6135L12.4102 25.7083L12.4102 25.7083L11.6152 27.5435ZM10.6684 26.7948C10.8131 26.9396 10.9558 27.083 11.0857 27.1967C11.2231 27.3168 11.3944 27.4478 11.6152 27.5435L12.4102 25.7083C12.4562 25.7282 12.463 25.7442 12.4025 25.6913C12.3346 25.6319 12.2461 25.5441 12.0826 25.3806L10.6684 26.7948ZM9.77499 25.9015L10.6684 26.7948L12.0826 25.3806L11.1892 24.4873L9.77499 25.9015ZM9.02649 24.9548C9.12215 25.1756 9.2531 25.3469 9.37325 25.4842C9.48684 25.6141 9.63028 25.7568 9.77499 25.9015L11.1892 24.4873C11.0257 24.3238 10.938 24.2353 10.8786 24.1674C10.8257 24.1069 10.8417 24.1137 10.8616 24.1597L9.02649 24.9548ZM8.95648 23.5511C8.80922 24.0121 8.8341 24.5108 9.02649 24.9548L10.8616 24.1597V24.1597L8.95648 23.5511ZM9.60708 22.5346C9.47749 22.693 9.34896 22.8493 9.24885 22.9898C9.14296 23.1385 9.02969 23.3219 8.95648 23.5511L10.8616 24.1597C10.8464 24.2074 10.8311 24.2157 10.8777 24.1503C10.9301 24.0768 11.0086 23.9801 11.155 23.8011L9.60708 22.5346ZM10.2113 21.7961C10.2252 21.6928 10.2654 21.6811 10.1523 21.8438C10.0447 21.9986 9.87896 22.2024 9.60708 22.5346L11.155 23.8011C11.4055 23.4949 11.6315 23.2198 11.7946 22.9852C11.9521 22.7585 12.1418 22.4469 12.1935 22.0628L10.2113 21.7961ZM10.2113 21.7961L12.1935 22.0628C12.2893 21.3506 11.9957 20.6418 11.4243 20.206L10.2113 21.7961ZM9.2619 21.7012C9.6891 21.7439 9.95038 21.7708 10.1359 21.8042C10.3309 21.8393 10.2942 21.8594 10.2113 21.7961L11.4243 20.206C11.1162 19.9709 10.7617 19.8847 10.4901 19.8358C10.2089 19.7852 9.85454 19.7505 9.46091 19.7111L9.2619 21.7012ZM8.08326 21.4425C8.29707 21.5528 8.50685 21.6024 8.68681 21.6326C8.85693 21.6612 9.0583 21.6808 9.26191 21.7012L9.46091 19.7111C9.23087 19.6881 9.10701 19.6752 9.01798 19.6603C8.93879 19.647 8.95549 19.6421 9 19.665L8.08326 21.4425ZM7.14008 20.4003C7.31802 20.8504 7.65312 21.2207 8.08326 21.4425L9 19.665H9L7.14008 20.4003ZM7 19.2018C7 19.4064 6.99948 19.6088 7.01098 19.7809C7.02314 19.9629 7.05163 20.1766 7.14008 20.4003L9 19.665C9.01841 19.7116 9.01188 19.7277 9.00653 19.6476C9.00052 19.5575 9 19.433 9 19.2018H7ZM7 17.9383V19.2018H9V17.9383H7ZM7.14014 16.7395C7.05165 16.9633 7.02315 17.177 7.01098 17.3591C6.99948 17.5313 7 17.7336 7 17.9383H9C9 17.7071 9.00052 17.5825 9.00654 17.4924C9.01189 17.4123 9.01842 17.4284 9 17.475L7.14014 16.7395ZM8.08311 15.6975C7.65309 15.9194 7.31807 16.2896 7.14014 16.7395L9 17.475L9 17.475L8.08311 15.6975ZM9.262 15.4388C9.05835 15.4592 8.85694 15.4788 8.68678 15.5074C8.50679 15.5376 8.29697 15.5872 8.08311 15.6975L9 17.475C8.95549 17.498 8.93877 17.4931 9.01798 17.4798C9.10703 17.4648 9.23092 17.4519 9.46101 17.4289L9.262 15.4388ZM9.36151 15.4339H9.36151V17.4339H9.36151V15.4339ZM10.2116 15.3439C10.2946 15.2806 10.3313 15.3007 10.1362 15.3358C9.95063 15.3692 9.6893 15.3961 9.26201 15.4388L9.46102 17.4289C9.85473 17.3895 10.2091 17.3548 10.4904 17.3042C10.7621 17.2553 11.1167 17.169 11.4248 16.9339L10.2116 15.3439ZM10.2116 15.3439L11.4248 16.9339C11.996 16.4981 12.2895 15.7894 12.1938 15.0774L10.2116 15.3439ZM9.60719 14.6051C9.87915 14.9375 10.045 15.1413 10.1526 15.2962C10.2657 15.459 10.2255 15.4473 10.2116 15.3439L12.1938 15.0774C12.1422 14.6932 11.9525 14.3815 11.7949 14.1548C11.6318 13.9201 11.4057 13.6449 11.1551 13.3386L9.60719 14.6051ZM8.95636 13.5882C9.02957 13.8175 9.14288 14.001 9.24881 14.1497C9.34895 14.2903 9.47754 14.4466 9.60719 14.6051L11.1551 13.3386C11.0086 13.1596 10.9301 13.0628 10.8777 12.9892C10.8311 12.9238 10.8464 12.9322 10.8616 12.9799L8.95636 13.5882ZM9.02635 12.185C8.83409 12.6289 8.80923 13.1274 8.95636 13.5882L10.8616 12.9799H10.8616L9.02635 12.185ZM9.77508 11.238C9.63032 11.3827 9.48682 11.5255 9.3732 11.6554C9.253 11.7928 9.12201 11.9641 9.02635 12.185L10.8616 12.9799C10.8417 13.0259 10.8256 13.0327 10.8785 12.9722C10.938 12.9042 11.0257 12.8157 11.1893 12.6522L9.77508 11.238ZM10.6683 10.3448L9.77508 11.238L11.1893 12.6522L12.0825 11.759L10.6683 10.3448ZM11.6152 9.59608C11.3944 9.69174 11.2231 9.82272 11.0857 9.94291C10.9558 10.0565 10.8131 10.2 10.6683 10.3448L12.0825 11.759C12.2461 11.5954 12.3345 11.5077 12.4025 11.4482C12.4629 11.3954 12.4561 11.4114 12.4102 11.4313L11.6152 9.59608ZM13.0186 9.52609C12.5577 9.37892 12.0591 9.40379 11.6152 9.59608L12.4102 11.4313L12.4102 11.4313L13.0186 9.52609ZM14.0354 10.1769C13.8769 10.0473 13.7206 9.91867 13.58 9.81853C13.4314 9.71261 13.2479 9.59931 13.0186 9.52609L12.4102 11.4313C12.3624 11.4161 12.3541 11.4008 12.4195 11.4474C12.4931 11.4998 12.5899 11.5783 12.7689 11.7248L14.0354 10.1769ZM14.774 10.7813C14.8774 10.7952 14.8891 10.8353 14.7263 10.7222C14.5715 10.6146 14.3677 10.4488 14.0354 10.1769L12.7689 11.7248C13.0751 11.9754 13.3503 12.2014 13.5849 12.3645C13.8116 12.522 14.1232 12.7117 14.5073 12.7634L14.774 10.7813ZM14.774 10.7813V10.7813L14.5073 12.7634C15.2195 12.8592 15.9284 12.5656 16.3642 11.9942L14.774 10.7813ZM14.869 9.83189C14.8263 10.2591 14.7994 10.5203 14.766 10.7058C14.7309 10.9008 14.7108 10.8642 14.774 10.7813L16.3642 11.9942C16.5992 11.6861 16.6855 11.3317 16.7344 11.06C16.785 10.7788 16.8197 10.4245 16.8591 10.0309L14.869 9.83189ZM14.864 9.93138V9.93139H16.864V9.93138H14.864ZM15.1276 8.65331C15.0173 8.86711 14.9677 9.07687 14.9375 9.25682C14.909 9.42693 14.8893 9.62829 14.869 9.83188L16.8591 10.0309C16.8821 9.80087 16.895 9.67701 16.9099 9.58799C16.9232 9.5088 16.9281 9.5255 16.9051 9.57001L15.1276 8.65331ZM16.1699 7.71007C15.7198 7.88801 15.3494 8.22314 15.1276 8.6533L16.9051 9.57001V9.57001L16.1699 7.71007ZM17.3683 7.57001C17.1637 7.57001 16.9614 7.56949 16.7893 7.58098C16.6072 7.59314 16.3936 7.62163 16.1699 7.71007L16.9051 9.57001C16.8586 9.58842 16.8424 9.58189 16.9226 9.57654C17.0126 9.57052 17.1372 9.57001 17.3683 9.57001V7.57001ZM18.632 7.57001H17.3683V9.57001H18.632V7.57001ZM19.8304 7.71007C19.6067 7.62163 19.3931 7.59314 19.211 7.58098C19.0389 7.56949 18.8366 7.57001 18.632 7.57001V9.57001C18.8632 9.57001 18.9877 9.57052 19.0778 9.57654C19.1579 9.58189 19.1417 9.58842 19.0952 9.57001L19.8304 7.71007ZM20.8727 8.65331C20.6509 8.22314 20.2806 7.88801 19.8304 7.71007L19.0952 9.57001L19.0952 9.57001L20.8727 8.65331ZM21.0001 18.57C21.0001 20.2269 19.6569 21.57 18.0001 21.57V23.57C20.7615 23.57 23.0001 21.3314 23.0001 18.57H21.0001ZM18.0001 15.57C19.6569 15.57 21.0001 16.9132 21.0001 18.57H23.0001C23.0001 15.8086 20.7615 13.57 18.0001 13.57V15.57ZM15.0001 18.57C15.0001 16.9132 16.3432 15.57 18.0001 15.57V13.57C15.2387 13.57 13.0001 15.8086 13.0001 18.57H15.0001ZM18.0001 21.57C16.3432 21.57 15.0001 20.2269 15.0001 18.57H13.0001C13.0001 21.3314 15.2387 23.57 18.0001 23.57V21.57Z" fill="#FDFDFD"/>
</svg>
