<svg width="48" height="49" viewBox="0 0 48 49" fill="none" xmlns="http://www.w3.org/2000/svg">
    <path d="M16.2682 30.0124C16.9877 29.4728 18.007 29.6153 18.5513 30.3294C18.5664 30.3484 18.5821 30.367 18.5979 30.3855C18.6432 30.4384 18.7203 30.5246 18.8289 30.6332C19.047 30.8512 19.3864 31.1541 19.8452 31.46C20.7564 32.0675 22.1334 32.6851 24 32.6851C25.8666 32.6851 27.2436 32.0675 28.1548 31.46C28.6136 31.1541 28.953 30.8512 29.171 30.6332C29.2796 30.5246 29.3567 30.4384 29.4021 30.3855C29.4179 30.367 29.4336 30.3484 29.4487 30.3294C29.9929 29.6153 31.0123 29.4728 31.7318 30.0124C32.4548 30.5547 32.6013 31.5803 32.0591 32.3033L32.0014 32.3774C31.9728 32.4132 31.9346 32.4597 31.8869 32.5153C31.7917 32.6265 31.6578 32.7747 31.4852 32.9473C31.1407 33.2918 30.6364 33.7389 29.9702 34.183C28.6314 35.0756 26.6334 35.9579 24 35.9579C21.3666 35.9579 19.3686 35.0756 18.0298 34.183C17.3636 33.7389 16.8593 33.2918 16.5148 32.9473C16.2557 32.6883 16.0845 32.4848 15.9986 32.3774C15.4351 31.6543 15.512 30.5795 16.2682 30.0124Z" fill="#000072"/>
    <path fill-rule="evenodd" clip-rule="evenodd" d="M24 0.571411C10.7452 0.571411 0 11.3166 0 24.5714C0 37.8262 10.7452 48.5714 24 48.5714C37.2548 48.5714 48 37.8262 48 24.5714C48 11.3166 37.2548 0.571411 24 0.571411ZM3.27273 24.5714C3.27273 13.1241 12.5526 3.84414 24 3.84414C35.4474 3.84414 44.7273 13.1241 44.7273 24.5714C44.7273 36.0188 35.4474 45.2987 24 45.2987C12.5526 45.2987 3.27273 36.0188 3.27273 24.5714Z" fill="#000072"/>
    <path d="M17.4545 21.8441C17.4545 23.3504 16.2335 24.5714 14.7273 24.5714C13.221 24.5714 12 23.3504 12 21.8441C12 20.3379 13.221 19.1169 14.7273 19.1169C16.2335 19.1169 17.4545 20.3379 17.4545 21.8441Z" fill="#000072"/>
    <path d="M33.2727 24.5714C34.779 24.5714 36 23.3504 36 21.8441C36 20.3379 34.779 19.1169 33.2727 19.1169C31.7665 19.1169 30.5455 20.3379 30.5455 21.8441C30.5455 23.3504 31.7665 24.5714 33.2727 24.5714Z" fill="#000072"/>
</svg>
