<svg width="36" height="37" viewBox="0 0 36 37" fill="none" xmlns="http://www.w3.org/2000/svg">
    <circle cx="18" cy="18.57" r="18" fill="#000072"/>
    <path fill-rule="evenodd" clip-rule="evenodd" d="M18.2917 8.62907C18.1052 8.55032 17.8948 8.55032 17.7083 8.62907L6.45827 13.3791C6.18053 13.4963 6 13.7685 6 14.07C6 14.3715 6.18053 14.6437 6.45827 14.7609L10.25 16.3619V20.1655C9.76381 20.2916 9.30237 20.5429 8.9228 20.9224C8.34402 21.5012 8 22.3327 8 23.3512V27.8512C8 28.1004 8.12795 28.3381 8.33509 28.4759C8.39421 28.5151 8.45249 28.5487 8.55517 28.6001C8.67876 28.6619 8.85216 28.7383 9.07529 28.8127C9.52261 28.9618 10.1651 29.1012 11 29.1012C11.8349 29.1012 12.4773 28.9619 12.9246 28.8128C13.1478 28.7384 13.3212 28.6621 13.4447 28.6003C13.5416 28.5519 13.5982 28.5187 13.6546 28.4828C13.8661 28.3452 14 28.1044 14 27.8513V23.3513C14 22.3329 13.656 21.5013 13.0772 20.9225C12.6976 20.5429 12.2362 20.2916 11.75 20.1655V16.9952L17.7083 19.5109C17.8948 19.5897 18.1052 19.5897 18.2917 19.5109L23.5 17.3119V21.3141C23.4774 21.3396 23.4512 21.368 23.4213 21.3988C23.2597 21.5649 22.9876 21.8038 22.572 22.0491C21.7458 22.5367 20.3174 23.07 18 23.07C17.388 23.07 16.8384 23.0328 16.346 22.9692C15.9352 22.9162 15.5592 23.2062 15.5062 23.6171C15.4532 24.0279 15.7432 24.4039 16.154 24.4569C16.7132 24.5291 17.3271 24.57 18 24.57C20.5576 24.57 22.2543 23.9783 23.3343 23.3409C23.8718 23.0237 24.2481 22.7001 24.4968 22.4444C24.6402 22.2968 24.7814 22.1383 24.8894 21.9621L24.89 21.9611C24.9619 21.8433 25 21.708 25 21.57V16.6786L29.5417 14.7609C29.8195 14.6437 30 14.3715 30 14.07C30 13.7685 29.8195 13.4963 29.5417 13.3791L18.2917 8.62907ZM10.9999 21.57C10.9999 21.57 11 21.57 10.9999 21.57C10.623 21.57 10.2555 21.7111 9.98345 21.9831C9.71848 22.2481 9.5 22.6821 9.5 23.3512V27.3727C9.7989 27.4779 10.2973 27.6012 11 27.6012C11.7027 27.6012 12.2011 27.478 12.5 27.3728V23.3513C12.5 22.6822 12.2815 22.2482 12.0165 21.9832C11.7445 21.7111 11.3769 21.57 10.9999 21.57ZM18 18.0059L8.67816 14.07L18 10.1341L27.3218 14.07L18 18.0059Z" fill="#FDFDFD"/>
</svg>
