<svg width="34" height="34" viewBox="0 0 34 34" fill="none" xmlns="http://www.w3.org/2000/svg">
    <path d="M9.25 5H24.75C25.3083 4.99946 25.8612 5.11184 26.377 5.33071C26.8929 5.54958 27.3616 5.87064 27.7564 6.27551C28.1511 6.68039 28.4642 7.16113 28.6776 7.69023C28.891 8.21933 29.0005 8.7864 29 9.35898V24.641C29.0005 25.2136 28.891 25.7807 28.6776 26.3098C28.4642 26.8389 28.1511 27.3196 27.7564 27.7245C27.3616 28.1294 26.8929 28.4504 26.377 28.6693C25.8612 28.8882 25.3083 29.0005 24.75 29H9.25C8.69174 29.0005 8.13885 28.8882 7.62297 28.6693C7.1071 28.4504 6.63838 28.1294 6.24362 27.7245C5.84887 27.3196 5.53584 26.8389 5.32244 26.3098C5.10905 25.7807 4.99948 25.2136 5 24.641V9.35898C4.99948 8.7864 5.10905 8.21933 5.32244 7.69023C5.53584 7.16113 5.84887 6.68039 6.24362 6.27551C6.63838 5.87064 7.1071 5.54958 7.62297 5.33071C8.13885 5.11184 8.69174 4.99946 9.25 5Z" fill="#000B1D"/>
    <path d="M24.7339 10.4742L21.3041 8.82281C20.9071 8.63166 20.4327 8.71229 20.1211 9.02386L8.89327 19.261C8.59127 19.5364 8.59162 20.0118 8.89402 20.2867L9.81114 21.1205C10.0584 21.3452 10.4307 21.3618 10.6969 21.1599L24.2178 10.9026C24.6714 10.5585 25.3229 10.882 25.3229 11.4514V11.4116C25.3229 11.0119 25.094 10.6476 24.7339 10.4742Z" fill="#0065A9"/>
    <g filter="url(#filter0_d_24_475)">
        <path d="M24.7339 23.5258L21.3041 25.1772C20.9071 25.3684 20.4327 25.2877 20.1211 24.9761L8.89327 14.739C8.59127 14.4636 8.59162 13.9882 8.89402 13.7132L9.81114 12.8795C10.0584 12.6547 10.4307 12.6382 10.6969 12.8401L24.2178 23.0974C24.6714 23.4415 25.3229 23.118 25.3229 22.5486V22.5884C25.3229 22.9881 25.094 23.3524 24.7339 23.5258Z" fill="#007ACC"/>
    </g>
    <g filter="url(#filter1_d_24_475)">
        <path d="M21.3042 25.1775C20.9071 25.3685 20.4327 25.2877 20.1211 24.9761C20.505 25.36 21.1615 25.0881 21.1615 24.5452V9.45481C21.1615 8.91187 20.505 8.63996 20.1211 9.02388C20.4327 8.71229 20.9071 8.63154 21.3042 8.82252L24.7334 10.4716C25.0938 10.6449 25.3229 11.0094 25.3229 11.4092V22.5909C25.3229 22.9907 25.0938 23.3552 24.7334 23.5284L21.3042 25.1775Z" fill="#1F9CF0"/>
    </g>
    <g style="mix-blend-mode:overlay" opacity="0.25">
        <path style="mix-blend-mode:overlay" fill-rule="evenodd" clip-rule="evenodd" d="M20.4709 25.2093C20.733 25.3114 21.032 25.3049 21.2966 25.1776L24.7237 23.5285C25.0838 23.3552 25.3128 22.9908 25.3128 22.5909V11.4093C25.3128 11.0094 25.0838 10.645 24.7237 10.4717L21.2966 8.82258C20.9493 8.65548 20.5429 8.69641 20.2381 8.91799C20.1946 8.94965 20.1531 8.98499 20.1142 9.02394L13.5534 15.0095L10.6956 12.8402C10.4296 12.6383 10.0575 12.6548 9.81045 12.8796L8.89388 13.7133C8.59166 13.9882 8.59131 14.4637 8.89313 14.739L11.3715 17.0001L8.89313 19.2611C8.59131 19.5365 8.59166 20.0119 8.89388 20.2868L9.81045 21.1206C10.0575 21.3453 10.4296 21.3619 10.6956 21.1599L13.5534 18.9907L20.1142 24.9762C20.2179 25.08 20.3398 25.1582 20.4709 25.2093ZM21.1539 13.2213L16.1758 17.0001L21.1539 20.7789V13.2213Z" fill="url(#paint0_linear_24_475)"/>
    </g>
    <defs>
        <filter id="filter0_d_24_475" x="0.333652" y="4.36577" width="33.3226" height="29.2474" filterUnits="userSpaceOnUse" color-interpolation-filters="sRGB">
            <feFlood flood-opacity="0" result="BackgroundImageFix"/>
            <feColorMatrix in="SourceAlpha" type="matrix" values="0 0 0 0 0 0 0 0 0 0 0 0 0 0 0 0 0 0 127 0" result="hardAlpha"/>
            <feOffset/>
            <feGaussianBlur stdDeviation="4.16667"/>
            <feColorMatrix type="matrix" values="0 0 0 0 0 0 0 0 0 0 0 0 0 0 0 0 0 0 0.25 0"/>
            <feBlend mode="overlay" in2="BackgroundImageFix" result="effect1_dropShadow_24_475"/>
            <feBlend mode="normal" in="SourceGraphic" in2="effect1_dropShadow_24_475" result="shape"/>
        </filter>
        <filter id="filter1_d_24_475" x="11.7878" y="0.386662" width="21.8685" height="33.2267" filterUnits="userSpaceOnUse" color-interpolation-filters="sRGB">
            <feFlood flood-opacity="0" result="BackgroundImageFix"/>
            <feColorMatrix in="SourceAlpha" type="matrix" values="0 0 0 0 0 0 0 0 0 0 0 0 0 0 0 0 0 0 127 0" result="hardAlpha"/>
            <feOffset/>
            <feGaussianBlur stdDeviation="4.16667"/>
            <feColorMatrix type="matrix" values="0 0 0 0 0 0 0 0 0 0 0 0 0 0 0 0 0 0 0.25 0"/>
            <feBlend mode="overlay" in2="BackgroundImageFix" result="effect1_dropShadow_24_475"/>
            <feBlend mode="normal" in="SourceGraphic" in2="effect1_dropShadow_24_475" result="shape"/>
        </filter>
        <linearGradient id="paint0_linear_24_475" x1="16.9899" y1="8.72006" x2="16.9899" y2="25.2801" gradientUnits="userSpaceOnUse">
            <stop stop-color="white"/>
            <stop offset="1" stop-color="white" stop-opacity="0"/>
        </linearGradient>
    </defs>
</svg>
